<svg xmlns="http://www.w3.org/2000/svg" data-name="Layer 1" viewBox="0 0 100 125" x="0px" y="0px"><title>big4_outline</title><path d="M87.83,12.83H12.17a8,8,0,0,0-8,8V75.5a8,8,0,0,0,8,8H87.83a8,8,0,0,0,8-8V20.83A8,8,0,0,0,87.83,12.83Zm4,62.67a4,4,0,0,1-4,4H12.17a4,4,0,0,1-4-4V20.83a4,4,0,0,1,4-4H87.83a4,4,0,0,1,4,4V75.5Zm-60-40.33a2,2,0,0,1,0,2.83L23,46.83A2,2,0,0,1,20.17,44l7.42-7.42-7.5-7.5a2,2,0,0,1,2.83-2.83ZM53,45.42a2,2,0,0,1-2,2H36.5a2,2,0,0,1,0-4H51A2,2,0,0,1,53,45.42Z"/><text x="0" y="115" fill="#000000" font-size="5px" font-weight="bold" font-family="'Helvetica Neue', Helvetica, Arial-Unicode, Arial, Sans-serif">Created by Hare Krishna</text><text x="0" y="120" fill="#000000" font-size="5px" font-weight="bold" font-family="'Helvetica Neue', Helvetica, Arial-Unicode, Arial, Sans-serif">from the Noun Project</text></svg>